<?xml version="1.0" encoding="UTF-8" standalone="no"?>
<svg
   xmlns:dc="http://purl.org/dc/elements/1.1/"
   xmlns:cc="http://creativecommons.org/ns#"
   xmlns:rdf="http://www.w3.org/1999/02/22-rdf-syntax-ns#"
   xmlns:svg="http://www.w3.org/2000/svg"
   xmlns="http://www.w3.org/2000/svg"
   xmlns:sodipodi="http://sodipodi.sourceforge.net/DTD/sodipodi-0.dtd"
   xmlns:inkscape="http://www.inkscape.org/namespaces/inkscape"
   width="24"
   height="24"
   viewBox="0 0 24 24"
   fill="none"
   version="1.1"
   id="svg22"
   sodipodi:docname="ecolight.svg"
   inkscape:version="1.0.1 (3bc2e813f5, 2020-09-07)">
  <metadata
     id="metadata28">
    <rdf:RDF>
      <cc:Work
         rdf:about="">
        <dc:format>image/svg+xml</dc:format>
        <dc:type
           rdf:resource="http://purl.org/dc/dcmitype/StillImage" />
        <dc:title></dc:title>
      </cc:Work>
    </rdf:RDF>
  </metadata>
  <defs
     id="defs26" />
  <sodipodi:namedview
     pagecolor="#ffffff"
     bordercolor="#666666"
     borderopacity="1"
     objecttolerance="10"
     gridtolerance="10"
     guidetolerance="10"
     inkscape:pageopacity="0"
     inkscape:pageshadow="2"
     inkscape:window-width="1920"
     inkscape:window-height="1017"
     id="namedview24"
     showgrid="false"
     inkscape:zoom="35.416667"
     inkscape:cx="12"
     inkscape:cy="12"
     inkscape:window-x="-8"
     inkscape:window-y="-8"
     inkscape:window-maximized="1"
     inkscape:current-layer="svg22" />
  <path
     d="M5.83337 10.3333C5.85014 12.3362 6.7323 14.234 8.25264 15.5379L9.33337 19.0503V20.3333C9.33451 21.2534 10.08 21.9988 11 22H13C13.9201 21.9988 14.6656 21.2534 14.6667 20.3333V19.0503L15.7474 15.5379C17.2678 14.234 18.1499 12.3362 18.1667 10.3333C18.1667 7.0496 15.5734 4.66663 12 4.66663C8.42664 4.66663 5.83337 7.0496 5.83337 10.3333V10.3333ZM14 20H10V19.3333H14V20ZM13 21.3333H11C10.5764 21.3328 10.1988 21.0659 10.057 20.6666H13.9431C13.8013 21.0659 13.4237 21.3328 13 21.3333ZM14.0874 18.6666H9.91264L9.15043 16.1886C10.8964 17.2708 13.1044 17.2708 14.8503 16.1886L14.0874 18.6666ZM11.3143 12.2386L11.8031 12.5903C11.9193 12.674 12.076 12.674 12.1924 12.5903L12.6867 12.2334C12.6748 12.2654 12.668 12.2991 12.6667 12.3333V16.2793C12.2251 16.3514 11.7749 16.3514 11.3334 16.2793V12.3333C11.3317 12.3009 11.3254 12.269 11.3143 12.2386ZM12 5.33329C15.1871 5.33329 17.5 7.43632 17.5 10.3333C17.5 13.0314 15.6667 15.4427 13.3334 16.131V12.4119L13.5817 12.5903C13.698 12.674 13.8547 12.674 13.9711 12.5903L14.8614 11.9506C14.9608 11.8821 15.0153 11.7653 15.0041 11.6451C14.9929 11.5249 14.9175 11.4202 14.8072 11.3714C14.6967 11.3226 14.5686 11.3372 14.472 11.4096L13.7764 11.9096L13.0811 11.4096C12.9647 11.326 12.808 11.326 12.6918 11.4096L11.9978 11.9096L11.3038 11.4096C11.1874 11.3258 11.0305 11.3258 10.9141 11.4096L10.2207 11.9096L9.52836 11.4096C9.37895 11.3019 9.17061 11.3357 9.06287 11.4851C8.95512 11.6346 8.98897 11.8429 9.13839 11.9506L10.0258 12.5903C10.1421 12.6743 10.2992 12.6743 10.4157 12.5903L10.6667 12.4096V16.131C8.33337 15.4427 6.50004 13.0314 6.50004 10.3333C6.50004 7.43632 8.81303 5.33329 12 5.33329V5.33329Z"
     fill="#EB8028"
     id="path2" />
  <path
     d="M7.34103 11.7389C7.37505 11.8915 7.51046 12.0001 7.66671 11.9999C7.69113 11.9998 7.71554 11.9973 7.73931 11.9923C7.82573 11.9731 7.90109 11.9205 7.94862 11.8458C7.99614 11.7711 8.01193 11.6806 7.99272 11.5943C7.67095 10.3649 7.93429 9.05561 8.70675 8.04633C9.43169 7.15945 10.5214 6.65147 11.6667 6.66661C11.8508 6.66661 12.0001 6.51736 12.0001 6.33328C12.0001 6.1492 11.8508 5.99994 11.6667 5.99994C10.3189 5.98399 9.03748 6.58377 8.18641 7.62901C7.28585 8.79519 6.97384 10.312 7.34103 11.7389Z"
     fill="#EB8028"
     id="path4" />
  <path
     d="M12.6667 6.66667H13C13.1841 6.66667 13.3334 6.51742 13.3334 6.33333C13.3334 6.14925 13.1841 6 13 6H12.6667C12.4826 6 12.3334 6.14925 12.3334 6.33333C12.3334 6.51742 12.4826 6.66667 12.6667 6.66667Z"
     fill="#EB8028"
     id="path6" />
  <path
     d="M12.3333 3.66667V2.33333C12.3333 2.14925 12.184 2 12 2C11.8159 2 11.6666 2.14925 11.6666 2.33333V3.66667C11.6666 3.85075 11.8159 4 12 4C12.184 4 12.3333 3.85075 12.3333 3.66667Z"
     fill="#EB8028"
     id="path8" />
  <path
     d="M17.0977 17.0977C16.9676 17.2279 16.9676 17.4388 17.0977 17.569L18.0977 18.569C18.2285 18.6953 18.4364 18.6935 18.5649 18.5649C18.6935 18.4364 18.6953 18.2285 18.569 18.0977L17.569 17.0977C17.4388 16.9676 17.2279 16.9676 17.0977 17.0977V17.0977Z"
     fill="#EB8028"
     id="path10" />
  <path
     d="M4.56894 4.09759C4.43808 3.97129 4.23024 3.97308 4.10166 4.10166C3.97308 4.23024 3.97129 4.43808 4.09759 4.56894L5.09759 5.56894C5.22844 5.69524 5.43629 5.69345 5.56487 5.56487C5.69345 5.43629 5.69524 5.22844 5.56894 5.09759L4.56894 4.09759Z"
     fill="#EB8028"
     id="path12" />
  <path
     d="M5.43103 18.5689C5.56124 18.699 5.77218 18.699 5.90239 18.5689L6.90239 17.5689C7.02869 17.4381 7.0269 17.2302 6.89832 17.1017C6.76974 16.9731 6.56189 16.9713 6.43103 17.0976L5.43103 18.0976C5.30098 18.2278 5.30098 18.4387 5.43103 18.5689V18.5689Z"
     fill="#EB8028"
     id="path14" />
  <path
     d="M5 11.6666H3.33333C3.14925 11.6666 3 11.8159 3 12C3 12.184 3.14925 12.3333 3.33333 12.3333H5C5.18408 12.3333 5.33333 12.184 5.33333 12C5.33333 11.8159 5.18408 11.6666 5 11.6666Z"
     fill="#EB8028"
     id="path16" />
  <path
     d="M19.4311 4.09759L18.4311 5.09759C18.3445 5.18125 18.3097 5.30527 18.3403 5.42181C18.3707 5.53834 18.4617 5.62933 18.5782 5.65976C18.6948 5.69036 18.8188 5.65553 18.9024 5.56894L19.9024 4.56894C20.0287 4.43808 20.0269 4.23024 19.8984 4.10166C19.7698 3.97308 19.5619 3.97129 19.4311 4.09759Z"
     fill="#EB8028"
     id="path18" />
  <path
     d="M18.6666 12C18.6666 12.184 18.8159 12.3333 19 12.3333H20.6666C20.8507 12.3333 21 12.184 21 12C21 11.8159 20.8507 11.6666 20.6666 11.6666H19C18.8159 11.6666 18.6666 11.8159 18.6666 12Z"
     fill="#EB8028"
     id="path20" />
  <path
     style="fill:#00ff00;stroke-width:0.320148"
     d="M 10.8,21.976534 C 10.252748,21.897905 9.7588224,21.539809 9.5152865,21.045117 9.3710335,20.752097 9.3469197,20.568793 9.3463725,19.761084 L 9.3458824,19.037462 8.8097972,17.29537 8.2737119,15.553278 7.9268913,15.20958 C 7.73614,15.020546 7.4938682,14.757882 7.3885095,14.625882 6.5817523,13.615126 6.0754065,12.426122 5.8975091,11.124706 5.8435604,10.730042 5.8500942,9.8529656 5.9098464,9.4685833 6.3554159,6.602262 8.7949849,4.6868576 11.999827,4.6870931 c 2.4497,1.799e-4 4.495542,1.1210185 5.514424,3.0211422 0.485495,0.9054034 0.712029,2.0557135 0.614433,3.1199997 -0.08625,0.940584 -0.285706,1.655902 -0.692812,2.484706 -0.374361,0.76214 -0.74861,1.28431 -1.349472,1.882851 l -0.360659,0.359266 -0.535812,1.741202 -0.535811,1.741202 -4.92e-4,0.723622 c -5.47e-4,0.8089 -0.02332,0.9811 -0.169381,1.280656 -0.208186,0.426977 -0.561704,0.72669 -1.044246,0.885312 -0.138779,0.04562 -0.282912,0.05161 -1.355294,0.05635 -0.66,0.0029 -1.238118,-1.7e-4 -1.284706,-0.0069 z m 2.595398,-0.708839 c 0.199613,-0.09205 0.372753,-0.244043 0.468822,-0.411545 0.04592,-0.08006 0.0836,-0.161444 0.08375,-0.180856 C 13.94818,20.647397 13.539906,20.64 12,20.64 c -1.32976,0 -1.948235,0.0093 -1.948235,0.02936 0,0.05416 0.11244,0.250457 0.201693,0.352111 0.04862,0.05538 0.144296,0.133442 0.212609,0.173476 0.250566,0.146841 0.271604,0.148744 1.576286,0.142566 1.19645,-0.0057 1.216139,-0.0067 1.353045,-0.06982 z m 0.609308,-1.601813 V 19.312941 H 12 9.9952941 v 0.352941 0.352942 H 12 14.004706 Z m 0.470332,-2.202353 c 0.206178,-0.667764 0.375288,-1.228357 0.375798,-1.245761 5.11e-4,-0.0174 -0.18013,0.05963 -0.401424,0.171185 -1.576555,0.794747 -3.322269,0.794747 -4.8988238,0 -0.2212941,-0.111555 -0.4023529,-0.192179 -0.4023529,-0.179164 0,0.02789 0.7354142,2.429661 0.7535449,2.46098 0.0068,0.01175 0.9542188,0.0181 2.1053758,0.01412 l 2.093012,-0.0072 z m -1.875406,-1.160909 0.07728,-0.0173 0.0074,-2.022661 c 0.0041,-1.112464 0.0048,-2.027422 0.0016,-2.033242 -0.0032,-0.0058 -0.130381,0.07893 -0.282555,0.188329 -0.152173,0.109401 -0.308849,0.206984 -0.348168,0.216853 -0.102145,0.02564 -0.185302,-0.01371 -0.471957,-0.223316 -0.139455,-0.101972 -0.258374,-0.185405 -0.264265,-0.185407 -0.01365,-7e-6 10e-4,4.044675 0.01472,4.058372 0.05433,0.05433 1.041311,0.06866 1.26597,0.01837 z m -1.933372,-2.959397 -0.0074,-0.947953 -0.156309,0.110898 c -0.181096,0.128484 -0.269519,0.157075 -0.368913,0.119285 -0.08806,-0.03348 -0.949825,-0.654569 -1.0370562,-0.747423 -0.091846,-0.09777 -0.1052894,-0.238251 -0.033748,-0.35267 0.068343,-0.109303 0.223469,-0.183723 0.3281827,-0.157442 0.040072,0.01006 0.2394266,0.137331 0.4430107,0.282831 0.2035838,0.1455 0.3782188,0.264545 0.3880768,0.264545 0.0099,0 0.169338,-0.109562 0.354399,-0.243471 0.376107,-0.27215 0.488532,-0.33021 0.590062,-0.304727 0.03827,0.0096 0.237747,0.137224 0.443282,0.283598 0.205534,0.146374 0.387363,0.260891 0.404064,0.254483 0.0167,-0.0064 0.191108,-0.125874 0.387571,-0.265478 0.196463,-0.139603 0.388921,-0.261785 0.427685,-0.271514 0.104699,-0.02628 0.187761,0.01552 0.554927,0.279254 0.183429,0.131755 0.350466,0.246013 0.371195,0.253907 0.02073,0.0079 0.190159,-0.09483 0.376512,-0.228274 0.186353,-0.133444 0.375308,-0.261718 0.4199,-0.285054 0.243576,-0.127463 0.541246,0.194464 0.400118,0.432725 -0.0262,0.04424 -0.277409,0.245321 -0.558235,0.446851 -0.582277,0.41786 -0.626839,0.432868 -0.83837,0.282352 -0.06498,-0.04624 -0.142887,-0.101496 -0.17313,-0.122802 -0.05433,-0.03828 -0.05499,-0.01629 -0.05499,1.841003 v 1.87974 l 0.12,-0.03732 c 1.171901,-0.364492 2.30118,-1.253806 3.050552,-2.402329 0.691798,-1.060283 1.036849,-2.277065 1.000792,-3.529172 C 17.4698,9.1857699 17.223538,8.3910768 16.701354,7.6069618 16.127062,6.744601 15.21796,6.0529997 14.174118,5.6843605 13.475111,5.4375023 12.837099,5.333412 12.014118,5.331961 10.94914,5.3300833 10.070072,5.5223466 9.2188235,5.9433272 8.0215654,6.5354251 7.1351923,7.5407133 6.7360496,8.7591882 6.5780268,9.2415891 6.5181508,9.6042054 6.5015966,10.179063 c -0.029724,1.032201 0.1760893,1.957805 0.646136,2.905863 0.6913314,1.394377 1.9401461,2.528776 3.2792134,2.978774 l 0.231878,0.07792 0.0074,-0.925224 c 0.0041,-0.508873 0.0041,-1.351803 0,-1.873176 z"
     id="path853" />
  <path
     style="fill:#00ff00;stroke-width:0.320148"
     d="M 7.475865,11.916251 C 7.389207,11.848086 7.3560979,11.766755 7.2992343,11.482367 6.9999468,9.9855617 7.4680654,8.3428926 8.4831881,7.3277699 8.9892856,6.8216724 9.5660672,6.4656054 10.246444,6.2392522 10.675808,6.0964076 11.031522,6.0354303 11.458574,6.0314658 l 0.347986,-0.00323 0.0826,0.09221 c 0.137325,0.1532988 0.104072,0.3995672 -0.06626,0.4907271 -0.03369,0.018032 -0.226806,0.042998 -0.42914,0.05548 C 10.585593,6.7165066 9.8571145,7.0007488 9.2162754,7.5162774 8.5863031,8.023064 8.1260851,8.8112581 7.9285298,9.721739 c -0.051836,0.238898 -0.062576,0.378631 -0.063344,0.824143 -7.968e-4,0.46198 0.00834,0.57856 0.065833,0.839592 0.057104,0.259283 0.061602,0.31557 0.031107,0.389193 -0.052982,0.127909 -0.1569747,0.197098 -0.2962432,0.197098 -0.076003,0 -0.1451103,-0.02019 -0.1900174,-0.05551 z"
     id="path855" />
  <path
     style="fill:#008000;stroke-width:0.320148"
     d="M 12.536471,6.6140738 C 12.41509,6.5534374 12.326398,6.3890861 12.352044,6.2723211 c 0.0098,-0.04447 0.05609,-0.1175821 0.102947,-0.1624705 0.08274,-0.079272 0.09359,-0.081615 0.37795,-0.081615 0.284357,0 0.295209,0.00234 0.377951,0.081615 0.04685,0.044888 0.09318,0.1180001 0.102947,0.1624705 0.02565,0.116765 -0.06305,0.2811163 -0.184427,0.3417527 -0.134095,0.066988 -0.458847,0.066988 -0.592941,0 z"
     id="path857" />
  <path
     style="fill:#00ff00;stroke-width:0.320148"
     d="M 7.57888,11.939322 C 7.4514486,11.905379 7.4042336,11.837139 7.3432789,11.598809 7.2157129,11.10003 7.1961264,10.294378 7.2979662,9.7349627 7.4311754,9.0032321 7.7204497,8.3217331 8.1353695,7.7621309 8.9082214,6.7197857 10.247562,6.0423529 11.535514,6.0423529 c 0.232931,0 0.262807,0.00619 0.319062,0.066067 0.129348,0.1376843 0.127436,0.3565602 -0.0041,0.4656155 -0.02699,0.022382 -0.214202,0.054214 -0.463197,0.078759 -0.490332,0.048334 -0.783869,0.1127355 -1.144163,0.2510288 -1.1904115,0.4569211 -2.0099562,1.4413946 -2.3267541,2.7950006 -0.074421,0.3179832 -0.076554,1.3618802 -0.00345,1.6900782 0.027176,0.122014 0.049412,0.257894 0.049412,0.301955 0,0.165243 -0.2027417,0.296605 -0.3834729,0.248465 z"
     id="path859" />
  <path
     style="fill:#00ff00;stroke-width:0.320148"
     d="m 12.691765,6.6368312 c -0.153597,-0.025497 -0.231459,-0.072531 -0.282061,-0.1703837 -0.06798,-0.1314658 -0.05336,-0.2213776 0.05335,-0.3280946 0.09598,-0.095981 0.09605,-0.096 0.369882,-0.096 0.273827,0 0.273902,1.94e-5 0.369883,0.096 0.112091,0.1120917 0.122952,0.2066661 0.03928,0.3420511 -0.08382,0.1356202 -0.302033,0.1976453 -0.550338,0.1564272 z"
     id="path861" />
  <path
     style="fill:#00ff00;stroke-width:0.320148"
     d="m 11.785412,3.8851765 -0.096,-0.096 V 3.0225978 c 0,-0.8577913 0.006,-0.8894252 0.186347,-0.9749839 0.141411,-0.067104 0.300905,-0.022203 0.379603,0.1068652 0.05098,0.083612 0.05502,0.1468402 0.05512,0.8624621 l 1.05e-4,0.7722353 -0.096,0.096 c -0.0787,0.0787 -0.11737,0.096 -0.214588,0.096 -0.09722,0 -0.135888,-0.0173 -0.214588,-0.096 z"
     id="path863" />
  <path
     style="fill:#00ff00;stroke-width:0.320148"
     d="m 18.448941,5.5510588 c -0.07957,-0.079571 -0.096,-0.1168915 -0.096,-0.2180761 0,-0.1212318 0.0041,-0.1261215 0.585883,-0.7069384 0.36894,-0.3682986 0.614259,-0.5917839 0.66252,-0.6035551 0.184081,-0.044899 0.421066,0.1920861 0.376167,0.3761672 -0.01177,0.04826 -0.235257,0.2935792 -0.603555,0.6625201 -0.580817,0.5818299 -0.585707,0.5858823 -0.706939,0.5858823 -0.101184,0 -0.138505,-0.016429 -0.218076,-0.096 z"
     id="path865" />
  <path
     style="fill:#00ff00;stroke-width:0.320148"
     d="m 18.787765,12.214588 c -0.136186,-0.136185 -0.136186,-0.292991 0,-0.429176 l 0.096,-0.096 h 0.951529 0.95153 l 0.096,0.096 c 0.0787,0.0787 0.096,0.11737 0.096,0.214588 0,0.09722 -0.0173,0.135888 -0.096,0.214588 l -0.096,0.096 h -0.95153 -0.951529 z"
     id="path867" />
  <path
     style="fill:#00ff00;stroke-width:0.320148"
     d="m 17.612512,18.048664 c -0.558551,-0.558551 -0.58663,-0.591791 -0.58663,-0.694467 0,-0.205514 0.124309,-0.328315 0.332346,-0.328315 0.09743,0 0.139838,0.03603 0.690436,0.58663 l 0.58663,0.58663 v 0.131198 c 0,0.108858 -0.01479,0.145992 -0.08688,0.218076 -0.07208,0.07208 -0.109218,0.08688 -0.218076,0.08688 H 18.19914 Z"
     id="path869" />
  <path
     style="fill:#00ff00;stroke-width:0.320148"
     d="m 5.5341176,18.614074 c -0.059786,-0.02987 -0.1192293,-0.09113 -0.1504804,-0.155082 -0.086899,-0.177837 -0.050183,-0.232166 0.582878,-0.86249 0.5669004,-0.564449 0.5744094,-0.57062 0.6943503,-0.57062 0.1002475,0 0.1378823,0.01663 0.2172521,0.096 0.079361,0.07936 0.096,0.11701 0.096,0.217215 0,0.119721 -0.00687,0.128143 -0.557647,0.683585 -0.4828366,0.486927 -0.6659084,0.640993 -0.7614461,0.640804 -0.012146,-2.5e-5 -0.066554,-0.02226 -0.1209069,-0.04941 z"
     id="path871" />
  <path
     style="fill:#00ff00;stroke-width:0.320148"
     d="m 3.1171765,12.214588 c -0.1361857,-0.136185 -0.1361857,-0.292991 0,-0.429176 l 0.096,-0.096 h 0.9515294 0.9515294 l 0.096,0.096 c 0.0787,0.0787 0.096,0.11737 0.096,0.214588 0,0.09722 -0.0173,0.135888 -0.096,0.214588 l -0.096,0.096 H 4.1647059 3.2131765 Z"
     id="path873" />
  <path
     style="fill:#00ff00;stroke-width:0.320148"
     d="M 5.2094118,5.61962 C 5.108731,5.5770813 4.043089,4.4806033 4.0227851,4.3986564 3.9772093,4.2147124 4.2146913,3.9772222 4.3986564,4.0227721 4.4463741,4.0345871 4.6909968,4.2563343 5.0469045,4.6104005 5.4987207,5.0598789 5.6221829,5.1986057 5.6360174,5.2723501 5.6812312,5.5133604 5.4340835,5.7145461 5.2094118,5.61962 Z"
     id="path875" />
  <path
     style="fill:#00ff00;stroke-width:0.320148"
     d="M 5.5325763,18.5938 C 5.4301715,18.5381 5.3515028,18.381155 5.3763546,18.282138 c 0.023729,-0.09455 1.0504635,-1.145577 1.1807218,-1.208663 0.1798616,-0.08711 0.388806,0.05693 0.388806,0.268037 0,0.110303 -0.017544,0.132658 -0.4447059,0.566637 -0.5216842,0.530011 -0.7487445,0.727575 -0.8344071,0.726015 -0.034135,-6.22e-4 -0.094522,-0.01879 -0.1341931,-0.04036 z"
     id="path877" />
  <path
     style="fill:#00ff00;stroke-width:0.320148"
     d=""
     id="path879" />
</svg>
